<?xml version="1.0" encoding="UTF-8" standalone="no"?>
<svg
   xmlns:dc="http://purl.org/dc/elements/1.1/"
   xmlns:cc="http://creativecommons.org/ns#"
   xmlns:rdf="http://www.w3.org/1999/02/22-rdf-syntax-ns#"
   xmlns:svg="http://www.w3.org/2000/svg"
   xmlns="http://www.w3.org/2000/svg"
   xmlns:sodipodi="http://sodipodi.sourceforge.net/DTD/sodipodi-0.dtd"
   xmlns:inkscape="http://www.inkscape.org/namespaces/inkscape"
   width="100"
   height="100"
   viewBox="0 0 26.458333 26.458334"
   version="1.1"
   id="svg8"
   inkscape:version="1.0.1 (3bc2e813f5, 2020-09-07)"
   sodipodi:docname="ship_logo.svg">
  <defs
     id="defs2">
    <inkscape:perspective
       sodipodi:type="inkscape:persp3d"
       inkscape:vp_x="0 : -122.04167 : 1"
       inkscape:vp_y="0 : 1000 : 0"
       inkscape:vp_z="210 : -122.04167 : 1"
       inkscape:persp3d-origin="105 : -171.54167 : 1"
       id="perspective955" />
  </defs>
  <sodipodi:namedview
     id="base"
     pagecolor="#5f6d7b"
     bordercolor="#12293f"
     borderopacity="1"
     inkscape:pageopacity="0"
     inkscape:pageshadow="2"
     inkscape:zoom="14.780005"
     inkscape:cx="49.724045"
     inkscape:cy="92.070352"
     inkscape:document-units="px"
     inkscape:current-layer="layer3"
     inkscape:document-rotation="0"
     showgrid="false"
     showguides="true"
     inkscape:guide-bbox="true"
     inkscape:window-width="2048"
     inkscape:window-height="1376"
     inkscape:window-x="3072"
     inkscape:window-y="27"
     inkscape:window-maximized="0"
     units="px">
    <sodipodi:guide
       position="2.6458333,14.879508"
       orientation="-1,0"
       id="guide1017"
       inkscape:label=""
       inkscape:locked="false"
       inkscape:color="rgb(0,0,255)" />
    <sodipodi:guide
       position="23.8125,15.876055"
       orientation="-1,0"
       id="guide1019"
       inkscape:label=""
       inkscape:locked="false"
       inkscape:color="rgb(0,0,255)" />
  </sodipodi:namedview>
  <metadata
     id="metadata5">
    <rdf:RDF>
      <cc:Work
         rdf:about="">
        <dc:format>image/svg+xml</dc:format>
        <dc:type
           rdf:resource="http://purl.org/dc/dcmitype/StillImage" />
        <dc:title></dc:title>
      </cc:Work>
    </rdf:RDF>
  </metadata>
  <g
     inkscape:groupmode="layer"
     id="layer2"
     inkscape:label="Main"
     style="display:inline">
    <path
       id="path850"
       style="fill:#ffffff;fill-opacity:1;stroke:none;stroke-width:0.03314px;stroke-linecap:butt;stroke-linejoin:miter;stroke-opacity:1"
       d="m 18.083902,21.799245 v 0.229779 h -0.165444 v 0.172237 h 0.165444 v 0.09677 l -0.0545,0.01844 v 0.04441 h 0.155215 v 0.270234 l -0.421823,-0.0012 v 0.291463 h 0.189712 l 0.128873,0.128872 v 1.336086 h -0.456457 v 0.464996 h -0.09858 v -0.303503 c 4.42e-4,-0.04477 0.03455,-0.08472 0.09048,-0.08472 l 0.0018,-0.536842 c -0.103504,0 -0.339168,0.138924 -0.339168,0.331983 v 0.593088 h -0.13146 v -0.463376 h -0.06207 v -1.212579 h -0.906592 v 1.212589 h -0.07508 v 0.463377 h -0.06673 v 0.129971 l 0.05418,0.03126 v 0.104209 h -0.16654 V 24.83829 h -0.302857 v 0.300332 h -0.208808 v -0.193211 c 1.24e-4,-0.01063 0.01115,-0.02013 0.02438,-0.02013 0.0014,-0.06012 6.6e-5,-0.05517 6.6e-5,-0.119227 -0.04362,0 -0.08311,0.04163 -0.08311,0.139939 v 0.192626 h -0.810379 v -0.329976 c 4.44e-4,-0.04476 0.03455,-0.08472 0.09049,-0.08472 l 0.0018,-0.536843 c -0.103507,0 -0.339233,0.138925 -0.339233,0.331982 v 0.619563 h -0.146649 v -0.06441 c -0.162316,-0.01379 -0.3125,-0.03101 -0.524803,-0.03055 a 0.09685377,0.09685377 0 0 0 -0.09651,-0.08894 0.09685377,0.09685377 0 0 0 -0.09676,0.09366 c -0.08422,0.0041 -0.181147,0.0118 -0.286996,0.02207 v -0.125571 c 1.37e-4,-0.01062 0.01115,-0.02013 0.02438,-0.02013 0.0014,-0.06012 0,-0.05517 0,-0.119227 -0.04362,0 -0.08304,0.04164 -0.08304,0.139938 v 0.130554 c -0.0084,8.51e-4 -0.0154,0.0014 -0.02402,0.0023 v 0.06032 h -0.03451 v -0.366352 h 0.02783 c 4.42e-4,0 8.51e-4,-3.76e-4 8.51e-4,-8.41e-4 v -0.08667 c 0,-4.43e-4 -3.77e-4,-8.41e-4 -8.51e-4,-8.41e-4 h -0.126218 c -4.43e-4,0 -8.51e-4,3.76e-4 -8.51e-4,8.41e-4 v 0.08667 c 0,4.42e-4 3.76e-4,8.41e-4 8.51e-4,8.41e-4 h 0.0334 v 0.366366 h -0.362834 v -0.328034 c 4.42e-4,-0.04476 0.03455,-0.08472 0.09048,-0.08472 l 0.0018,-0.536907 c -0.103503,0 -0.339167,0.138925 -0.339167,0.331983 v 0.617685 h -0.115342 v -0.750892 h -0.06039 v -1.212333 h -0.784916 v 1.212329 h -0.08311 v 0.416997 H 11.135763 V 25.13862 H 10.243742 V 25.0548 H 10.78285 V 24.79148 H 10.7605 v -0.07042 h -0.426291 l 0.0018,-0.532117 c -0.103507,0 -0.3392322,0.138925 -0.3392322,0.331982 v 0.270558 H 9.2172693 v 0.263308 h 0.7795005 v 0.08382 H 9.0096873 V 24.723385 H 8.7736301 v -0.39768 H 8.6368643 v -0.475932 l 0.1112638,-0.111265 h 0.1897165 v -0.291399 l -0.4218227,0.0012 V 22.97808 h 0.1552109 v -0.04441 l -0.054561,-0.01843 v -0.09681 h 0.164847 V 22.646193 H 8.6160168 V 22.416415 H 8.3165896 v 0.242077 H 8.1780762 v 0.170231 h 0.1419422 l 0.078448,0.07521 v 0.544674 l -0.4284857,0.0012 v 0.305574 h 0.2181917 l 0.1244704,0.12447 V 24.32135 H 8.1413096 v 0.04874 h 0.1395531 v 0.31865 h -0.080067 v 0.09055 h 0.080067 v 0.142399 H 8.0276525 l 8.848e-4,-0.384347 c 4.424e-4,-0.04416 0.012035,-0.06525 0.067962,-0.06525 l 0.00177,-0.268809 c -0.1035077,0 -0.2066086,0.04743 -0.2066086,0.327517 v 0.390884 h -0.262594 v 0.06111 h 0.2625945 v 0.155861 H 7.7507496 v -0.09983 c -0.1017691,-0.0087 -0.1983218,-0.01876 -0.3083556,-0.02504 a 0.09685377,0.09685377 0 0 0 -0.09657,-0.08958 0.09685377,0.09685377 0 0 0 -0.095991,0.08421 c -0.1529058,-6.64e-4 -0.3367909,0.0075 -0.5868114,0.0345 v 0.07055 H 5.9830684 v 0.03703 l -1.1844315,0.0013 V 25.2784 l 1.1832015,-9.12e-4 -0.00177,0.03528 0.6830589,0.0056 v 0.06945 H 6.4727034 v 0.113983 H 6.1506895 V 25.39475 H 5.7652396 v 0.106928 H 5.4098265 v -0.04096 H 5.1535102 v -0.07256 h -0.086346 v 0.07256 h -0.071719 v 0.04098 h 0.038271 v 0.03508 0.278454 H 4.9816102 V 25.46066 h 0.013096 c 4.424e-4,0 8.848e-4,-3.01e-4 8.848e-4,-7.97e-4 v -0.07016 c 0,-4.43e-4 -3.008e-4,-8.41e-4 -8.848e-4,-8.41e-4 h -0.099676 c -4.424e-4,0 -8.849e-4,3.76e-4 -8.849e-4,8.41e-4 v 0.07016 c 0,4.43e-4 3.762e-4,7.97e-4 8.849e-4,7.97e-4 h 0.028404 v 0.354571 h -0.03358 v -0.04254 c 0,-4.43e-4 -3.762e-4,-8.4e-4 -8.848e-4,-8.4e-4 h -0.049257 c -4.424e-4,0 -8.848e-4,3.74e-4 -8.848e-4,8.4e-4 v 0.04245 h -0.120975 v -0.0286 c 0,-4.42e-4 -3.761e-4,-8.4e-4 -8.849e-4,-8.4e-4 h -0.064082 c -4.425e-4,0 -8.849e-4,3.75e-4 -8.849e-4,8.4e-4 v 0.0286 H 3.3250913 v -0.131585 h 0.029864 c 4.426e-4,0 8.849e-4,-3.75e-4 8.849e-4,-8.41e-4 v -0.03729 c 0,-4.43e-4 -3.76e-4,-7.97e-4 -8.849e-4,-7.97e-4 H 3.2078945 c -4.424e-4,0 -8.847e-4,3.01e-4 -8.847e-4,7.97e-4 v 0.03729 c 0,4.43e-4 3.761e-4,8.41e-4 8.847e-4,8.41e-4 h 0.03774 v 0.131589 H 2.7666578 c 0,0 -0.1449154,0.0095 -0.1451145,0.251332 -2.655e-4,0.325867 0.02429,0.391856 0.02429,0.391856 H 23.837452 c -0.22785,-0.660424 -1.305472,-0.143748 -1.383076,-1.105531 h 0.02053 c 4.43e-4,0 8.51e-4,-3.74e-4 8.51e-4,-8.41e-4 v -0.153465 c 0,-4.43e-4 -3.71e-4,-8.4e-4 -8.51e-4,-8.4e-4 h -0.109321 c -4.42e-4,0 -8.5e-4,3.75e-4 -8.5e-4,8.4e-4 v 0.03999 h -0.741576 v -0.1468 c 0,-4.43e-4 -3.77e-4,-8.4e-4 -8.51e-4,-8.4e-4 h -0.129324 c -4.43e-4,0 -8.51e-4,3.76e-4 -8.51e-4,8.4e-4 v 0.09029 h -0.146478 c -4.42e-4,0 -8.51e-4,3.01e-4 -8.51e-4,7.96e-4 v 0.115407 c 0,4.42e-4 3.77e-4,8.4e-4 8.51e-4,8.4e-4 h 0.146478 v 0.04582 h -0.257614 v -0.08576 c 1.25e-4,-0.01063 0.01106,-0.02013 0.02433,-0.02013 0.0014,-0.06012 6.7e-5,-0.05517 6.7e-5,-0.119226 -0.04362,0 -0.08304,0.04163 -0.08304,0.139938 v 0.08518 h -0.05062 V 25.12859 h -0.104724 v -0.09806 h -0.09677 v 0.100779 h -0.05761 V 25.024578 H 20.41953 v 0.114049 h -0.08369 v -0.09974 l -0.21198,-0.02589 v -0.0303 l 0.63102,0.0037 0.0045,-0.0255 1.235757,-0.01373 -0.0014,-0.124469 -1.227861,0.01003 -0.0045,-0.04337 -0.639435,0.0053 v -0.07353 c -0.206086,-0.03597 -0.394918,-0.04992 -0.572441,-0.04939 a 0.09685377,0.09685377 0 0 0 -0.09592,-0.08343 0.09685377,0.09685377 0 0 0 -0.09651,0.08971 c -0.133709,0.0082 -0.261727,0.02358 -0.386547,0.04311 v 0.04907 h -0.05786 v -0.267127 l -0.07042,-0.01891 v -0.08977 h 0.06247 v -0.04259 h -0.02753 v -0.34797 h -0.258126 v 0.424477 h -0.05781 v 0.07916 h -0.03694 v 0.2213 h -0.132884 v -0.343116 h 0.137609 V 24.01548 h -0.135084 v -0.959506 l 0.117804,-0.117802 h 0.218191 v -0.305544 l -0.42849,-0.0013 v -0.344672 l 0.07845,-0.07521 h 0.141946 V 22.041313 H 18.383392 V 21.799232 Z M 8.0275197,24.982758 H 8.2808629 V 25.13862 H 8.0271968 Z" />
    <circle
       style="display:inline;fill:#ffffff;fill-opacity:1;stroke:none;stroke-width:0.0501014;stroke-linecap:round;stroke-linejoin:round;stroke-miterlimit:4;stroke-dasharray:none;stroke-opacity:1"
       id="path889"
       cx="22.247919"
       cy="24.72447"
       r="0.080212481" />
  </g>
  <g
     inkscape:groupmode="layer"
     id="layer3"
     inkscape:label="Rigging"
     style="display:inline">
    <path
       style="fill:none;fill-opacity:1;stroke:#ffffff;stroke-width:0.0501014;stroke-linecap:butt;stroke-linejoin:miter;stroke-miterlimit:4;stroke-dasharray:none;stroke-opacity:1"
       d="m 18.109896,20.532516 4.296316,4.728724"
       id="path853"
       sodipodi:nodetypes="cc" />
    <path
       style="fill:none;fill-opacity:1;stroke:#ffffff;stroke-width:0.0501014;stroke-linecap:butt;stroke-linejoin:miter;stroke-miterlimit:4;stroke-dasharray:none;stroke-opacity:1"
       d="m 18.109896,20.532516 -1.329387,4.638609"
       id="path859" />
    <path
       style="fill:none;fill-opacity:1;stroke:#ffffff;stroke-width:0.0501014;stroke-linecap:butt;stroke-linejoin:miter;stroke-miterlimit:4;stroke-dasharray:none;stroke-opacity:1"
       d="m 18.08392,20.154125 -5.717513,5.187463"
       id="path861" />
    <path
       style="fill:none;fill-opacity:1;stroke:#ffffff;stroke-width:0.0501014;stroke-linecap:butt;stroke-linejoin:miter;stroke-miterlimit:4;stroke-dasharray:none;stroke-opacity:1"
       d="M 18.08392,20.154125 8.5899264,20.482014"
       id="path863" />
    <path
       style="fill:none;fill-opacity:1;stroke:#ffffff;stroke-width:0.0501014;stroke-linecap:butt;stroke-linejoin:miter;stroke-miterlimit:4;stroke-dasharray:none;stroke-opacity:1"
       d="M 8.5899264,20.840038 18.109896,20.532516"
       id="path865" />
    <path
       style="fill:none;fill-opacity:1;stroke:#ffffff;stroke-width:0.0501014;stroke-linecap:butt;stroke-linejoin:miter;stroke-miterlimit:4;stroke-dasharray:none;stroke-opacity:1"
       d="M 10.009385,20.807403 9.4782309,25.462841"
       id="path867" />
    <path
       style="fill:none;fill-opacity:1;stroke:#ffffff;stroke-width:0.0501014;stroke-linecap:butt;stroke-linejoin:miter;stroke-miterlimit:4;stroke-dasharray:none;stroke-opacity:1"
       d="m 13.378001,20.705291 -0.631169,4.965422"
       id="path869" />
    <path
       style="fill:none;fill-opacity:1;stroke:#ffffff;stroke-width:0.0501014;stroke-linecap:butt;stroke-linejoin:miter;stroke-miterlimit:4;stroke-dasharray:none;stroke-opacity:1"
       d="m 15.218109,22.747883 -1.92122,-1.085094"
       id="path871" />
    <path
       style="fill:none;fill-opacity:1;stroke:#ffffff;stroke-width:0.0501014;stroke-linecap:butt;stroke-linejoin:miter;stroke-miterlimit:4;stroke-dasharray:none;stroke-opacity:1"
       d="m 11.19662,20.787424 -0.499523,4.749761"
       id="path873" />
    <path
       style="fill:none;fill-opacity:1;stroke:#ffffff;stroke-width:0.0501014;stroke-linecap:butt;stroke-linejoin:miter;stroke-miterlimit:4;stroke-dasharray:none;stroke-opacity:1"
       d="m 8.5899264,20.482014 -3.2876206,5.40004"
       id="path875" />
    <path
       style="fill:none;fill-opacity:1;stroke:#ffffff;stroke-width:0.0501014;stroke-linecap:butt;stroke-linejoin:miter;stroke-miterlimit:4;stroke-dasharray:none;stroke-opacity:1"
       d="M 8.5899264,20.840038 2.863852,25.958932"
       id="path877" />
    <path
       style="fill:none;fill-opacity:1;stroke:#ffffff;stroke-width:0.0501014;stroke-linecap:butt;stroke-linejoin:miter;stroke-miterlimit:4;stroke-dasharray:none;stroke-opacity:1"
       d="m 8.5899264,20.037468 v 2.683127"
       id="path879"
       sodipodi:nodetypes="cc" />
    <path
       style="fill:none;fill-opacity:1;stroke:#ffffff;stroke-width:0.0501014;stroke-linecap:butt;stroke-linejoin:miter;stroke-miterlimit:4;stroke-dasharray:none;stroke-opacity:1"
       d="m 18.08392,19.486659 v 2.734732"
       id="path881" />
    <path
       style="fill:none;fill-opacity:1;stroke:#ffffff;stroke-width:0.0501014;stroke-linecap:butt;stroke-linejoin:miter;stroke-miterlimit:4;stroke-dasharray:none;stroke-opacity:1"
       d="m 2.3870391,23.91097 0.7058266,2.157566"
       id="path883" />
    <path
       style="fill:none;fill-opacity:1;stroke:#ffffff;stroke-width:0.0501014;stroke-linecap:butt;stroke-linejoin:miter;stroke-miterlimit:4;stroke-dasharray:none;stroke-opacity:1"
       d="m 22.490647,23.836414 v 1.993782"
       id="path885" />
    <path
       style="fill:none;fill-opacity:1;stroke:#ffffff;stroke-width:0.0501014;stroke-linecap:butt;stroke-linejoin:miter;stroke-miterlimit:4;stroke-dasharray:none;stroke-opacity:1"
       d="m 22.211257,24.759339 -0.348042,0.531443 -0.170723,-0.151131 z"
       id="path887" />
    <path
       style="fill:none;fill-opacity:1;stroke:#ffffff;stroke-width:0.0501014;stroke-linecap:butt;stroke-linejoin:miter;stroke-miterlimit:4;stroke-dasharray:none;stroke-opacity:1"
       d="M 18.699964,22.662909 18.490386,22.186122"
       id="path925" />
    <path
       style="fill:none;fill-opacity:1;stroke:#ffffff;stroke-width:0.0501014;stroke-linecap:butt;stroke-linejoin:miter;stroke-miterlimit:4;stroke-dasharray:none;stroke-opacity:1"
       d="m 17.951849,22.173541 -0.163467,0.359928 v 0.246219"
       id="path927" />
    <path
       style="fill:none;fill-opacity:1;stroke:#ffffff;stroke-width:0.0501014;stroke-linecap:butt;stroke-linejoin:miter;stroke-miterlimit:4;stroke-dasharray:none;stroke-opacity:1"
       d="m 18.476175,22.077729 c 0,0 0.01057,-0.246136 0,-0.246136 -0.01057,0 -0.141651,0 -0.141651,0"
       id="path929" />
    <path
       style="fill:none;fill-opacity:1;stroke:#ffffff;stroke-width:0.0501014;stroke-linecap:butt;stroke-linejoin:miter;stroke-miterlimit:4;stroke-dasharray:none;stroke-opacity:1"
       d="m 18.289963,21.45667 v 0.09688 h 0.109857 v -0.100647"
       id="path931" />
    <path
       style="fill:none;fill-opacity:1;stroke:#ffffff;stroke-width:0.0501014;stroke-linecap:butt;stroke-linejoin:miter;stroke-miterlimit:4;stroke-dasharray:none;stroke-opacity:1"
       d="M 18.334856,21.890016 V 21.562902"
       id="path933" />
    <path
       style="fill:none;fill-opacity:1;stroke:#ffffff;stroke-width:0.0501014;stroke-linecap:butt;stroke-linejoin:miter;stroke-miterlimit:4;stroke-dasharray:none;stroke-opacity:1"
       d="m 18.003906,23.477547 h 0.445346"
       id="path935" />
    <path
       style="fill:none;fill-opacity:1;stroke:#ffffff;stroke-width:0.0501014;stroke-linecap:butt;stroke-linejoin:miter;stroke-miterlimit:4;stroke-dasharray:none;stroke-opacity:1"
       d="m 17.999318,24.010559 h 0.445347"
       id="path937" />
    <path
       style="fill:none;fill-opacity:1;stroke:#ffffff;stroke-width:0.0501014;stroke-linecap:butt;stroke-linejoin:miter;stroke-miterlimit:4;stroke-dasharray:none;stroke-opacity:1"
       d="m 8.4582044,23.006236 0.4159737,0.365897 v 0.250299"
       id="path941" />
    <path
       style="fill:none;fill-opacity:1;stroke:#ffffff;stroke-width:0.0501014;stroke-linecap:butt;stroke-linejoin:miter;stroke-miterlimit:4;stroke-dasharray:none;stroke-opacity:1"
       d="m 8.2237975,22.694897 c 0,0 -0.010574,-0.246134 0,-0.246134 0.010573,0 0.1416502,0 0.1416502,0"
       id="path943" />
    <path
       style="fill:none;fill-opacity:1;stroke:#ffffff;stroke-width:0.0501014;stroke-linecap:butt;stroke-linejoin:miter;stroke-miterlimit:4;stroke-dasharray:none;stroke-opacity:1"
       d="m 8.4100099,22.073838 v 0.09688 H 8.300153 v -0.100647"
       id="path945" />
    <path
       style="fill:none;fill-opacity:1;stroke:#ffffff;stroke-width:0.0501014;stroke-linecap:butt;stroke-linejoin:miter;stroke-miterlimit:4;stroke-dasharray:none;stroke-opacity:1"
       d="M 8.3651159,22.507185 V 22.180071"
       id="path947" />
    <path
       style="fill:none;fill-opacity:1;stroke:#ffffff;stroke-width:0.0501014;stroke-linecap:butt;stroke-linejoin:miter;stroke-miterlimit:4;stroke-dasharray:none;stroke-opacity:1"
       d="m 8.0163306,23.506917 8.848e-4,-0.17638 0.4158277,-0.273694"
       id="path953" />
    <path
       style="display:inline;fill:none;fill-opacity:1;stroke:#ffffff;stroke-width:0.0501014;stroke-linecap:butt;stroke-linejoin:miter;stroke-miterlimit:4;stroke-dasharray:none;stroke-opacity:1"
       d="m 9.2844708,24.223657 c -0.097234,0.249395 -0.083302,0.640674 -0.1023574,1.015722"
       id="path992"
       sodipodi:nodetypes="cc" />
    <path
       style="display:inline;fill:none;fill-opacity:1;stroke:#ffffff;stroke-width:0.0501014;stroke-linecap:butt;stroke-linejoin:miter;stroke-miterlimit:4;stroke-dasharray:none;stroke-opacity:1"
       d="m 10.574693,24.230714 c 0.09723,0.249396 0.0833,0.640675 0.102362,1.015723"
       id="path994"
       sodipodi:nodetypes="cc" />
    <path
       style="display:inline;fill:none;fill-opacity:1;stroke:#ffffff;stroke-width:0.0501014;stroke-linecap:butt;stroke-linejoin:miter;stroke-miterlimit:4;stroke-dasharray:none;stroke-opacity:1"
       d="m 9.086857,24.458113 v 0.882215"
       id="path1014" />
    <path
       style="display:inline;fill:none;fill-opacity:1;stroke:#ffffff;stroke-width:0.0501014;stroke-linecap:butt;stroke-linejoin:miter;stroke-miterlimit:4;stroke-dasharray:none;stroke-opacity:1"
       d="m 10.744787,24.462084 v 1.015038"
       id="path1016" />
    <path
       style="display:inline;fill:none;fill-opacity:1;stroke:#ffffff;stroke-width:0.0501014;stroke-linecap:butt;stroke-linejoin:miter;stroke-miterlimit:4;stroke-dasharray:none;stroke-opacity:1"
       d="M 9.2378647,24.369456 H 10.617087"
       id="path1028" />
    <path
       style="display:inline;fill:none;fill-opacity:1;stroke:#ffffff;stroke-width:0.0501014;stroke-linecap:butt;stroke-linejoin:miter;stroke-miterlimit:4;stroke-dasharray:none;stroke-opacity:1"
       d="m 4.8010172,25.223462 c -0.042208,0.222387 -0.024378,0.453842 -0.027697,0.682105"
       id="path1048"
       sodipodi:nodetypes="cc" />
    <path
       style="display:inline;fill:none;fill-opacity:1;stroke:#ffffff;stroke-width:0.0501014;stroke-linecap:butt;stroke-linejoin:miter;stroke-miterlimit:4;stroke-dasharray:none;stroke-opacity:1"
       d="m 12.692518,24.188984 c 0.09723,0.249395 0.0833,0.640674 0.102362,1.015722"
       id="path1060"
       sodipodi:nodetypes="cc" />
  </g>
</svg>
