<?xml version="1.0" encoding="UTF-8" standalone="no"?>
<svg
   xmlns:dc="http://purl.org/dc/elements/1.1/"
   xmlns:cc="http://creativecommons.org/ns#"
   xmlns:rdf="http://www.w3.org/1999/02/22-rdf-syntax-ns#"
   xmlns:svg="http://www.w3.org/2000/svg"
   xmlns="http://www.w3.org/2000/svg"
   xmlns:sodipodi="http://sodipodi.sourceforge.net/DTD/sodipodi-0.dtd"
   xmlns:inkscape="http://www.inkscape.org/namespaces/inkscape"
   width="100"
   height="27"
   viewBox="0 0 26.458333 7.1437501"
   version="1.1"
   id="svg8"
   inkscape:version="1.0.1 (3bc2e813f5, 2020-09-07)"
   sodipodi:docname="ship_logo.svg">
  <defs
     id="defs2">
    <inkscape:perspective
       sodipodi:type="inkscape:persp3d"
       inkscape:vp_x="0 : -141.35626 : 1"
       inkscape:vp_y="0 : 999.99998 : 0"
       inkscape:vp_z="210 : -141.35626 : 1"
       inkscape:persp3d-origin="105 : -190.85626 : 1"
       id="perspective955" />
  </defs>
  <sodipodi:namedview
     id="base"
     pagecolor="#5f6d7b"
     bordercolor="#12293f"
     borderopacity="1"
     inkscape:pageopacity="0"
     inkscape:pageshadow="2"
     inkscape:zoom="12.006498"
     inkscape:cx="59.982911"
     inkscape:cy="23.75066"
     inkscape:document-units="px"
     inkscape:current-layer="layer2"
     inkscape:document-rotation="0"
     showgrid="false"
     showguides="true"
     inkscape:guide-bbox="true"
     inkscape:window-width="2560"
     inkscape:window-height="1352"
     inkscape:window-x="2560"
     inkscape:window-y="51"
     inkscape:window-maximized="0"
     units="px">
    <sodipodi:guide
       position="2.6458333,14.879508"
       orientation="-1,0"
       id="guide1017"
       inkscape:label=""
       inkscape:locked="false"
       inkscape:color="rgb(0,0,255)" />
    <sodipodi:guide
       position="23.8125,15.876055"
       orientation="-1,0"
       id="guide1019"
       inkscape:label=""
       inkscape:locked="false"
       inkscape:color="rgb(0,0,255)" />
  </sodipodi:namedview>
  <metadata
     id="metadata5">
    <rdf:RDF>
      <cc:Work
         rdf:about="">
        <dc:format>image/svg+xml</dc:format>
        <dc:type
           rdf:resource="http://purl.org/dc/dcmitype/StillImage" />
        <dc:title></dc:title>
      </cc:Work>
    </rdf:RDF>
  </metadata>
  <g
     inkscape:groupmode="layer"
     id="layer2"
     inkscape:label="Main"
     style="display:inline">
    <path
       id="path850"
       style="fill:#392800;fill-opacity:1;stroke:#392800;stroke-width:0.03314px;stroke-linecap:butt;stroke-linejoin:miter;stroke-opacity:1"
       d="m 15.413115,2.4747281 v 0.229779 h -0.165444 v 0.1722367 h 0.165444 v 0.09677 l -0.0545,0.01844 v 0.04441 h 0.155215 v 0.270234 l -0.421823,-0.0012 v 0.2914627 h 0.189712 l 0.128873,0.128872 v 1.3360851 h -0.456457 v 0.4649957 h -0.09858 V 5.2233106 c 4.42e-4,-0.04477 0.03455,-0.08472 0.09048,-0.08472 l 0.0018,-0.5368417 c -0.103504,0 -0.339168,0.138924 -0.339168,0.331983 v 0.5930874 h -0.13146 V 5.0634436 h -0.06207 V 3.8508655 h -0.906592 v 1.2125881 h -0.07508 v 0.4633767 h -0.06673 v 0.129971 l 0.05418,0.03126 v 0.104209 h -0.16654 v -0.278499 h -0.302857 v 0.300332 H 12.74271 v -0.193211 c 1.24e-4,-0.01063 0.01115,-0.02013 0.02438,-0.02013 0.0014,-0.06012 6.6e-5,-0.05517 6.6e-5,-0.1192267 -0.04362,0 -0.08311,0.04163 -0.08311,0.1399387 v 0.192626 H 11.873667 V 5.4841246 c 4.44e-4,-0.04476 0.03455,-0.08472 0.09049,-0.08472 l 0.0018,-0.5368427 c -0.103507,0 -0.339233,0.1389247 -0.339233,0.3319817 v 0.6195627 h -0.146649 v -0.06441 c -0.162316,-0.01379 -0.3125,-0.03101 -0.524803,-0.03055 a 0.09685377,0.09685377 0 0 0 -0.09651,-0.08894 0.09685377,0.09685377 0 0 0 -0.09676,0.09366 c -0.08422,0.0041 -0.181147,0.0118 -0.286996,0.02207 v -0.125571 c 1.37e-4,-0.01062 0.01115,-0.02013 0.02438,-0.02013 0.0014,-0.06012 0,-0.05517 0,-0.1192267 -0.04362,0 -0.08304,0.04164 -0.08304,0.1399377 v 0.130554 c -0.0084,8.51e-4 -0.0154,0.0014 -0.02402,0.0023 v 0.06032 h -0.03451 V 5.4477686 h 0.02783 c 4.42e-4,0 8.51e-4,-3.76e-4 8.51e-4,-8.41e-4 v -0.08667 c 0,-4.43e-4 -3.77e-4,-8.41e-4 -8.51e-4,-8.41e-4 h -0.126218 c -4.43e-4,0 -8.51e-4,3.76e-4 -8.51e-4,8.41e-4 v 0.08667 c 0,4.42e-4 3.76e-4,8.41e-4 8.51e-4,8.41e-4 h 0.0334 V 5.8141343 H 9.9299943 V 5.4861006 c 4.42e-4,-0.04476 0.03455,-0.08472 0.09048,-0.08472 l 0.0018,-0.5369067 c -0.1035027,0 -0.3391667,0.1389247 -0.3391667,0.3319827 V 5.8141413 H 9.5677653 V 5.0632496 h -0.06039 V 3.8509175 H 8.7224599 v 1.2123281 h -0.08311 v 0.416997 H 8.4649769 V 5.8141013 H 7.5729565 v -0.08382 H 8.1120642 V 5.4669616 h -0.02235 v -0.07042 H 7.6634235 l 0.0018,-0.5321167 c -0.103507,0 -0.3392323,0.1389247 -0.3392323,0.3319817 v 0.270558 H 6.5464837 v 0.2633077 h 0.7795005 v 0.08382 H 6.3389017 V 5.3988666 H 6.1028445 v -0.39768 H 5.9660787 V 4.5252549 L 6.0773425,4.4139902 H 6.267059 v -0.291399 l -0.4218227,0.0012 V 3.6535625 h 0.1552109 v -0.04441 l -0.054561,-0.01843 v -0.09681 h 0.164847 V 3.3216758 H 5.9452312 V 3.0918978 H 5.645804 v 0.242077 H 5.5072906 v 0.1702307 h 0.1419422 l 0.078448,0.07521 v 0.5446737 l -0.4284857,0.0012 v 0.305574 H 5.5173868 L 5.6418572,4.5553329 V 4.9968316 H 5.470524 v 0.04874 h 0.1395531 v 0.31865 h -0.080067 v 0.09055 h 0.080067 V 5.5971703 H 5.3568669 l 8.848e-4,-0.3843467 c 4.424e-4,-0.04416 0.012035,-0.06525 0.067962,-0.06525 l 0.00177,-0.2688087 c -0.1035077,0 -0.2066086,0.04743 -0.2066086,0.3275167 v 0.3908837 h -0.262594 v 0.06111 h 0.2625945 v 0.155861 H 5.079964 v -0.09983 c -0.1017691,-0.0087 -0.1983218,-0.01876 -0.3083556,-0.02504 a 0.09685377,0.09685377 0 0 0 -0.09657,-0.08958 0.09685377,0.09685377 0 0 0 -0.095991,0.08421 c -0.1529058,-6.64e-4 -0.3367909,0.0075 -0.5868114,0.0345 v 0.07055 H 3.3122828 v 0.03703 l -1.1844315,0.0013 v 0.126605 l 1.1832015,-9.12e-4 -0.00177,0.03528 0.6830589,0.0056 v 0.06945 H 3.8019178 v 0.113983 H 3.4799039 V 6.070231 H 3.094454 V 6.177159 H 2.7390409 V 6.136199 H 2.4827246 v -0.07256 h -0.086346 v 0.07256 h -0.071719 v 0.04098 h 0.038271 v 0.03508 0.278454 H 2.3108246 V 6.136141 h 0.013096 c 4.424e-4,0 8.848e-4,-3.01e-4 8.848e-4,-7.97e-4 v -0.07016 c 0,-4.43e-4 -3.008e-4,-8.41e-4 -8.848e-4,-8.41e-4 h -0.099676 c -4.424e-4,0 -8.849e-4,3.76e-4 -8.849e-4,8.41e-4 v 0.07016 c 0,4.43e-4 3.762e-4,7.97e-4 8.849e-4,7.97e-4 h 0.028404 v 0.354571 h -0.03358 v -0.04254 c 0,-4.43e-4 -3.762e-4,-8.4e-4 -8.848e-4,-8.4e-4 h -0.049257 c -4.424e-4,0 -8.848e-4,3.74e-4 -8.848e-4,8.4e-4 v 0.04245 H 2.047067 v -0.0286 c 0,-4.42e-4 -3.761e-4,-8.4e-4 -8.849e-4,-8.4e-4 h -0.064082 c -4.425e-4,0 -8.849e-4,3.75e-4 -8.849e-4,8.4e-4 v 0.0286 H 0.65430573 V 6.359037 h 0.029864 c 4.426e-4,0 8.849e-4,-3.75e-4 8.849e-4,-8.41e-4 v -0.03729 c 0,-4.43e-4 -3.76e-4,-7.97e-4 -8.849e-4,-7.97e-4 h -0.1470608 c -4.424e-4,0 -8.847e-4,3.01e-4 -8.847e-4,7.97e-4 v 0.03729 c 0,4.43e-4 3.761e-4,8.41e-4 8.847e-4,8.41e-4 h 0.03774 V 6.490626 H 0.09587226 c 0,0 -0.1449154,0.0095 -0.1451145,0.2513317 -2.655e-4,0.325867 0.02429,0.3918557 0.02429,0.3918557 H 21.166665 C 20.938815,6.47339 19.861193,6.9900657 19.783589,6.028283 h 0.02053 c 4.43e-4,0 8.51e-4,-3.74e-4 8.51e-4,-8.41e-4 V 5.8739773 c 0,-4.43e-4 -3.71e-4,-8.4e-4 -8.51e-4,-8.4e-4 h -0.109321 c -4.42e-4,0 -8.5e-4,3.75e-4 -8.5e-4,8.4e-4 v 0.03999 h -0.741576 v -0.1468 c 0,-4.43e-4 -3.77e-4,-8.4e-4 -8.51e-4,-8.4e-4 h -0.129324 c -4.43e-4,0 -8.51e-4,3.76e-4 -8.51e-4,8.4e-4 v 0.09029 h -0.146478 c -4.42e-4,0 -8.51e-4,3.01e-4 -8.51e-4,7.96e-4 v 0.115407 c 0,4.42e-4 3.77e-4,8.4e-4 8.51e-4,8.4e-4 h 0.146478 v 0.04582 h -0.257614 v -0.08576 c 1.25e-4,-0.01063 0.01106,-0.02013 0.02433,-0.02013 0.0014,-0.06012 6.7e-5,-0.05517 6.7e-5,-0.119226 -0.04362,0 -0.08304,0.04163 -0.08304,0.139938 v 0.08518 h -0.05062 v -0.216251 h -0.104724 v -0.09806 h -0.09677 v 0.100779 h -0.05761 v -0.106731 h -0.446622 v 0.114049 h -0.08369 v -0.09974 l -0.21198,-0.02589 v -0.0303 l 0.63102,0.0037 0.0045,-0.0255 1.235757,-0.01373 -0.0014,-0.124469 -1.227861,0.01003 -0.0045,-0.04337 -0.639435,0.0053 v -0.07353 c -0.206086,-0.03597 -0.394918,-0.04992 -0.572441,-0.04939 a 0.09685377,0.09685377 0 0 0 -0.09592,-0.08343 0.09685377,0.09685377 0 0 0 -0.09651,0.08971 c -0.133709,0.0082 -0.261727,0.02358 -0.386547,0.04311 v 0.04907 h -0.05786 v -0.267127 l -0.07042,-0.01891 v -0.08977 h 0.06247 v -0.04259 h -0.02753 V 4.6793129 H 15.94827 v 0.4244767 h -0.05781 v 0.07916 h -0.03694 v 0.2213 h -0.132884 v -0.343116 h 0.137609 V 4.6909619 H 15.723161 V 3.7314565 l 0.117804,-0.117802 h 0.218191 V 3.3081108 l -0.42849,-0.0013 v -0.344672 l 0.07845,-0.07521 h 0.141946 V 2.7167961 H 15.712605 V 2.4747151 Z M 5.3567341,5.6582393 h 0.2533432 v 0.155862 H 5.3564112 Z" />
    <circle
       style="display:inline;fill:#392800;fill-opacity:1;stroke:#392800;stroke-width:0.0501014;stroke-linecap:round;stroke-linejoin:round;stroke-miterlimit:4;stroke-dasharray:none;stroke-opacity:1"
       id="path889"
       cx="19.577131"
       cy="5.3999596"
       r="0.080212481" />
  </g>
  <g
     inkscape:groupmode="layer"
     id="layer3"
     inkscape:label="Rigging"
     style="display:inline">
    <path
       style="fill:#392800;fill-opacity:1;stroke:#392800;stroke-width:0.0501014;stroke-linecap:butt;stroke-linejoin:miter;stroke-miterlimit:4;stroke-dasharray:none;stroke-opacity:1"
       d="m 15.439109,1.208 4.296316,4.7287213"
       id="path853"
       sodipodi:nodetypes="cc" />
    <path
       style="fill:#392800;fill-opacity:1;stroke:#392800;stroke-width:0.0501014;stroke-linecap:butt;stroke-linejoin:miter;stroke-miterlimit:4;stroke-dasharray:none;stroke-opacity:1"
       d="M 15.439109,1.208 14.109722,5.8466063"
       id="path859" />
    <path
       style="fill:#392800;fill-opacity:1;stroke:#392800;stroke-width:0.0501014;stroke-linecap:butt;stroke-linejoin:miter;stroke-miterlimit:4;stroke-dasharray:none;stroke-opacity:1"
       d="M 15.413133,0.82960901 9.6956203,6.0170693"
       id="path861" />
    <path
       style="fill:#392800;fill-opacity:1;stroke:#392800;stroke-width:0.0501014;stroke-linecap:butt;stroke-linejoin:miter;stroke-miterlimit:4;stroke-dasharray:none;stroke-opacity:1"
       d="M 15.413133,0.82960901 5.9191408,1.157498"
       id="path863" />
    <path
       style="fill:#392800;fill-opacity:1;stroke:#392800;stroke-width:0.0501014;stroke-linecap:butt;stroke-linejoin:miter;stroke-miterlimit:4;stroke-dasharray:none;stroke-opacity:1"
       d="M 5.9191408,1.5155217 15.439109,1.208"
       id="path865" />
    <path
       style="fill:#392800;fill-opacity:1;stroke:#392800;stroke-width:0.0501014;stroke-linecap:butt;stroke-linejoin:miter;stroke-miterlimit:4;stroke-dasharray:none;stroke-opacity:1"
       d="M 7.3385994,1.4828867 6.8074453,6.138322"
       id="path867" />
    <path
       style="fill:#392800;fill-opacity:1;stroke:#392800;stroke-width:0.0501014;stroke-linecap:butt;stroke-linejoin:miter;stroke-miterlimit:4;stroke-dasharray:none;stroke-opacity:1"
       d="M 10.707214,1.3807747 10.076045,6.346194"
       id="path869" />
    <path
       style="fill:#392800;fill-opacity:1;stroke:#392800;stroke-width:0.0501014;stroke-linecap:butt;stroke-linejoin:miter;stroke-miterlimit:4;stroke-dasharray:none;stroke-opacity:1"
       d="M 12.547322,3.4233655 10.626102,2.3382721"
       id="path871" />
    <path
       style="fill:#392800;fill-opacity:1;stroke:#392800;stroke-width:0.0501014;stroke-linecap:butt;stroke-linejoin:miter;stroke-miterlimit:4;stroke-dasharray:none;stroke-opacity:1"
       d="M 8.5258339,1.4629077 8.0263112,6.212666"
       id="path873" />
    <path
       style="fill:#392800;fill-opacity:1;stroke:#392800;stroke-width:0.0501014;stroke-linecap:butt;stroke-linejoin:miter;stroke-miterlimit:4;stroke-dasharray:none;stroke-opacity:1"
       d="M 5.9191408,1.157498 2.6315202,6.5575347"
       id="path875" />
    <path
       style="fill:#392800;fill-opacity:1;stroke:#392800;stroke-width:0.0501014;stroke-linecap:butt;stroke-linejoin:miter;stroke-miterlimit:4;stroke-dasharray:none;stroke-opacity:1"
       d="M 5.9191408,1.5155217 0.19306646,6.6344127"
       id="path877" />
    <path
       style="fill:#392800;fill-opacity:1;stroke:#392800;stroke-width:0.0501014;stroke-linecap:butt;stroke-linejoin:miter;stroke-miterlimit:4;stroke-dasharray:none;stroke-opacity:1"
       d="M 5.9191408,0.71295231 V 3.3960775"
       id="path879"
       sodipodi:nodetypes="cc" />
    <path
       style="fill:#392800;fill-opacity:1;stroke:#392800;stroke-width:0.0501014;stroke-linecap:butt;stroke-linejoin:miter;stroke-miterlimit:4;stroke-dasharray:none;stroke-opacity:1"
       d="M 15.413133,0.16214371 V 2.8968738"
       id="path881" />
    <path
       style="fill:#392800;fill-opacity:1;stroke:#392800;stroke-width:0.0501014;stroke-linecap:butt;stroke-linejoin:miter;stroke-miterlimit:4;stroke-dasharray:none;stroke-opacity:1"
       d="M -0.28374641,4.5864519 0.42208016,6.7440167"
       id="path883" />
    <path
       style="fill:#392800;fill-opacity:1;stroke:#392800;stroke-width:0.0501014;stroke-linecap:butt;stroke-linejoin:miter;stroke-miterlimit:4;stroke-dasharray:none;stroke-opacity:1"
       d="M 19.81986,4.5118959 V 6.505677"
       id="path885" />
    <path
       style="fill:#392800;fill-opacity:1;stroke:#392800;stroke-width:0.0501014;stroke-linecap:butt;stroke-linejoin:miter;stroke-miterlimit:4;stroke-dasharray:none;stroke-opacity:1"
       d="M 19.54047,5.4348206 19.192428,5.9662633 19.021705,5.8151323 Z"
       id="path887" />
    <path
       style="fill:#392800;fill-opacity:1;stroke:#392800;stroke-width:0.0501014;stroke-linecap:butt;stroke-linejoin:miter;stroke-miterlimit:4;stroke-dasharray:none;stroke-opacity:1"
       d="M 16.029177,3.3383918 15.819599,2.8616048"
       id="path925" />
    <path
       style="fill:#392800;fill-opacity:1;stroke:#392800;stroke-width:0.0501014;stroke-linecap:butt;stroke-linejoin:miter;stroke-miterlimit:4;stroke-dasharray:none;stroke-opacity:1"
       d="m 15.281062,2.8490238 -0.163467,0.359928 v 0.2462187"
       id="path927" />
    <path
       style="fill:#392800;fill-opacity:1;stroke:#392800;stroke-width:0.0501014;stroke-linecap:butt;stroke-linejoin:miter;stroke-miterlimit:4;stroke-dasharray:none;stroke-opacity:1"
       d="m 15.805388,2.7532121 c 0,0 0.01057,-0.246136 0,-0.246136 -0.01057,0 -0.141651,0 -0.141651,0"
       id="path929" />
    <path
       style="fill:#392800;fill-opacity:1;stroke:#392800;stroke-width:0.0501014;stroke-linecap:butt;stroke-linejoin:miter;stroke-miterlimit:4;stroke-dasharray:none;stroke-opacity:1"
       d="m 15.619176,2.1321534 v 0.09688 h 0.109857 v -0.100647"
       id="path931" />
    <path
       style="fill:#392800;fill-opacity:1;stroke:#392800;stroke-width:0.0501014;stroke-linecap:butt;stroke-linejoin:miter;stroke-miterlimit:4;stroke-dasharray:none;stroke-opacity:1"
       d="M 15.664069,2.5654991 V 2.2383854"
       id="path933" />
    <path
       style="fill:#392800;fill-opacity:1;stroke:#392800;stroke-width:0.0501014;stroke-linecap:butt;stroke-linejoin:miter;stroke-miterlimit:4;stroke-dasharray:none;stroke-opacity:1"
       d="m 15.333119,4.1530292 h 0.445346"
       id="path935" />
    <path
       style="fill:#392800;fill-opacity:1;stroke:#392800;stroke-width:0.0501014;stroke-linecap:butt;stroke-linejoin:miter;stroke-miterlimit:4;stroke-dasharray:none;stroke-opacity:1"
       d="m 15.328531,4.6860409 h 0.445347"
       id="path937" />
    <path
       style="fill:#392800;fill-opacity:1;stroke:#392800;stroke-width:0.0501014;stroke-linecap:butt;stroke-linejoin:miter;stroke-miterlimit:4;stroke-dasharray:none;stroke-opacity:1"
       d="m 5.7874188,3.6817185 0.4159737,0.3658967 v 0.250299"
       id="path941" />
    <path
       style="fill:#392800;fill-opacity:1;stroke:#392800;stroke-width:0.0501014;stroke-linecap:butt;stroke-linejoin:miter;stroke-miterlimit:4;stroke-dasharray:none;stroke-opacity:1"
       d="m 5.5530119,3.3703798 c 0,0 -0.010574,-0.246134 0,-0.246134 0.010573,0 0.1416502,0 0.1416502,0"
       id="path943" />
    <path
       style="fill:#392800;fill-opacity:1;stroke:#392800;stroke-width:0.0501014;stroke-linecap:butt;stroke-linejoin:miter;stroke-miterlimit:4;stroke-dasharray:none;stroke-opacity:1"
       d="m 5.7392243,2.7493211 v 0.09688 H 5.6293674 v -0.100647"
       id="path945" />
    <path
       style="fill:#392800;fill-opacity:1;stroke:#392800;stroke-width:0.0501014;stroke-linecap:butt;stroke-linejoin:miter;stroke-miterlimit:4;stroke-dasharray:none;stroke-opacity:1"
       d="M 5.6943303,3.1826678 V 2.8555538"
       id="path947" />
    <path
       style="fill:#392800;fill-opacity:1;stroke:#392800;stroke-width:0.0501014;stroke-linecap:butt;stroke-linejoin:miter;stroke-miterlimit:4;stroke-dasharray:none;stroke-opacity:1"
       d="m 5.345545,4.1823992 8.848e-4,-0.17638 0.4158277,-0.2736937"
       id="path953" />
    <path
       style="display:inline;fill:#392800;fill-opacity:1;stroke:#392800;stroke-width:0.0501014;stroke-linecap:butt;stroke-linejoin:miter;stroke-miterlimit:4;stroke-dasharray:none;stroke-opacity:1"
       d="M 6.6136852,4.8991389 C 6.5164512,5.1485336 6.5303832,5.5398123 6.5113278,5.9148603"
       id="path992"
       sodipodi:nodetypes="cc" />
    <path
       style="display:inline;fill:#392800;fill-opacity:1;stroke:#392800;stroke-width:0.0501014;stroke-linecap:butt;stroke-linejoin:miter;stroke-miterlimit:4;stroke-dasharray:none;stroke-opacity:1"
       d="m 7.9039072,4.9061959 c 0.09723,0.2493957 0.0833,0.6406744 0.102362,1.0157224"
       id="path994"
       sodipodi:nodetypes="cc" />
    <path
       style="display:inline;fill:#392800;fill-opacity:1;stroke:#392800;stroke-width:0.0501014;stroke-linecap:butt;stroke-linejoin:miter;stroke-miterlimit:4;stroke-dasharray:none;stroke-opacity:1"
       d="M 6.4160714,5.1335946 V 6.0158093"
       id="path1014" />
    <path
       style="display:inline;fill:#392800;fill-opacity:1;stroke:#392800;stroke-width:0.0501014;stroke-linecap:butt;stroke-linejoin:miter;stroke-miterlimit:4;stroke-dasharray:none;stroke-opacity:1"
       d="M 8.0740012,5.1375656 V 6.152603"
       id="path1016" />
    <path
       style="display:inline;fill:#392800;fill-opacity:1;stroke:#392800;stroke-width:0.0501014;stroke-linecap:butt;stroke-linejoin:miter;stroke-miterlimit:4;stroke-dasharray:none;stroke-opacity:1"
       d="M 6.5670791,5.0449376 H 7.9463012"
       id="path1028" />
    <path
       style="display:inline;fill:#392800;fill-opacity:1;stroke:#392800;stroke-width:0.0501014;stroke-linecap:butt;stroke-linejoin:miter;stroke-miterlimit:4;stroke-dasharray:none;stroke-opacity:1"
       d="M 2.1302316,5.8989433 C 2.0880236,6.12133 2.1058536,6.352785 2.1025346,6.5810477"
       id="path1048"
       sodipodi:nodetypes="cc" />
    <path
       style="display:inline;fill:#392800;fill-opacity:1;stroke:#392800;stroke-width:0.0501014;stroke-linecap:butt;stroke-linejoin:miter;stroke-miterlimit:4;stroke-dasharray:none;stroke-opacity:1"
       d="m 10.021731,4.8644659 c 0.09723,0.2493947 0.0833,0.6406734 0.102362,1.0157214"
       id="path1060"
       sodipodi:nodetypes="cc" />
  </g>
</svg>
